<?xml version="1.0" encoding="utf-8"?>
<!-- Generator: Adobe Illustrator 25.2.0, SVG Export Plug-In . SVG Version: 6.00 Build 0)  -->
<svg version="1.1" id="ee5053fc-ea24-484a-861d-c80bd2ae1a91"
	 xmlns="http://www.w3.org/2000/svg" xmlns:xlink="http://www.w3.org/1999/xlink" x="0px" y="0px" viewBox="0 0 982.5 763"
	 style="enable-background:new 0 0 982.5 763;" xml:space="preserve">
<style type="text/css">
	.st0{fill:#6C63FF;}
	.st1{fill:#E6E6E6;}
	.st2{fill:#FFFFFF;}
	.st3{display:none;fill:#E6E6E6;}
	.st4{display:none;}
	.st5{display:inline;fill:#E6E6E6;}
	.st6{display:inline;fill:#FFFFFF;}
	.st7{fill:#CBCBCB;}
</style>
<circle class="st0" cx="348.9" cy="142.9" r="10"/>
<g id="starts-lg">
	<circle class="st1" cx="122.9" cy="452.9" r="6"/>
	<circle class="st1" cx="542.9" cy="658.9" r="6"/>
</g>
<g id="stars-x">
	<circle class="st2" cx="168.8" cy="123.6" r="9"/>
	<circle class="st1" cx="850.9" cy="534.9" r="3"/>
	<circle class="st2" cx="100.5" cy="224.5" r="15"/>
</g>
<circle class="st3" cx="703.9" cy="523.9" r="3"/>
<g id="venus">
	<path class="st0" d="M158.4,270.2c-75-3.3-133.2-19.5-132.5-36.9c0.5-10.4,21.7-18.8,58.3-23c0.5-0.1,1,0.3,1.1,0.9s-0.3,1-0.9,1.1
		l0,0c-34.4,4-56.1,12-56.5,21.1C27.2,249.1,87,265,158.5,268.2S291,260.7,291.6,245c0.4-9.1-20.6-19.1-54.8-26
		c-0.5-0.1-0.9-0.6-0.8-1.2c0.1-0.5,0.6-0.9,1.2-0.8l0,0c36.3,7.4,56.9,17.6,56.4,28.1C292.9,262.5,233.5,273.5,158.4,270.2z"/>
	<path class="st0" d="M91.8,273.1c19.8,37.6,66.4,52.1,104,32.3c11.8-6.2,21.9-15.5,29.1-26.7C180.4,279.2,136,277.3,91.8,273.1z"/>
	<path class="st0" d="M233.1,257.6c13.4-40.3-8.4-83.9-48.7-97.4s-83.9,8.4-97.4,48.7c-4.6,13.9-5.2,28.8-1.7,43
		C134.2,260.1,183.8,262.1,233.1,257.6z"/>
</g>
<circle class="st0" cx="294.9" cy="358.9" r="29"/>
<g id="stars-md" class="st4">
	<circle class="st5" cx="151.9" cy="339.9" r="3"/>
	<circle class="st5" cx="709.9" cy="623.9" r="3"/>
	<circle class="st5" cx="372.9" cy="219.9" r="3"/>
	<circle class="st5" cx="382.9" cy="694.9" r="3"/>
	<circle class="st5" cx="234.9" cy="631.9" r="3"/>
	<circle class="st6" cx="126.3" cy="296.7" r="9"/>
</g>
<g id="stars-sm">
	<circle class="st1" cx="399.9" cy="563.9" r="3"/>
	<circle class="st1" cx="562.9" cy="515.9" r="3"/>
	<circle class="st1" cx="396.9" cy="71.9" r="3"/>
	<circle class="st1" cx="326.9" cy="458.9" r="3"/>
</g>
<g id="moon">
	<circle class="st1" cx="847.9" cy="68.9" r="66.2"/>
	<circle class="st7" cx="841.4" cy="23.3" r="7.6"/>
	<circle class="st7" cx="854.4" cy="99.3" r="7.6"/>
	<circle class="st7" cx="883.7" cy="57" r="5.4"/>
	<circle class="st7" cx="821.9" cy="74.3" r="17.4"/>
</g>
</svg>
