<?xml version="1.0" encoding="utf-8"?>
<!-- Generator: Adobe Illustrator 25.2.0, SVG Export Plug-In . SVG Version: 6.00 Build 0)  -->
<svg version="1.1" id="e4da07c6-3f45-486e-a553-879e7f222c67"
	 xmlns="http://www.w3.org/2000/svg" xmlns:xlink="http://www.w3.org/1999/xlink" x="0px" y="0px" viewBox="0 0 926 749"
	 style="enable-background:new 0 0 926 749;" xml:space="preserve">
<style type="text/css">
	.st0{fill:#F2F2F2;}
	.st1{opacity:0.1;}
	.st2{fill:#FF6584;}
	.st3{fill:#E6E6E6;}
	.st4{fill:#FFFFFF;}
	.st5{fill:#6C63FF;}
	.st6{fill:#3F3D56;}
</style>
<path class="st0" d="M432,605.5C193.9,605.5,0.8,669.7,0,749h864C863.2,669.7,670.1,605.5,432,605.5z"/>
<g class="st1">
	<ellipse cx="352" cy="692" rx="80" ry="22.2"/>
</g>
<g class="st1">
	<ellipse cx="525" cy="652" rx="80" ry="22.2"/>
</g>
<g class="st1">
	<ellipse cx="352" cy="692" rx="72" ry="20"/>
</g>
<g class="st1">
	<ellipse cx="525" cy="652" rx="72" ry="20"/>
</g>
<circle class="st0" cx="138" cy="290" r="7"/>
<circle class="st0" cx="740" cy="564" r="7"/>
<circle class="st0" cx="410" cy="339" r="7"/>
<circle class="st2" cx="757" cy="297" r="4"/>
<circle class="st2" cx="154" cy="497" r="4"/>
<polygon class="st0" points="94,581.3 92.2,581.3 92.2,579.5 91.8,579.5 91.8,581.3 90,581.3 90,581.7 91.8,581.7 91.8,583.5 
	92.2,583.5 92.2,581.7 94,581.7 "/>
<polygon class="st0" points="679,433.3 677.2,433.3 677.2,431.5 676.8,431.5 676.8,433.3 675,433.3 675,433.7 676.8,433.7 
	676.8,435.5 677.2,435.5 677.2,433.7 679,433.7 "/>
<polygon class="st0" points="830,403.3 828.2,403.3 828.2,401.5 827.8,401.5 827.8,403.3 826,403.3 826,403.7 827.8,403.7 
	827.8,405.5 828.2,405.5 828.2,403.7 830,403.7 "/>
<polygon class="st0" points="505,483.3 503.2,483.3 503.2,481.5 502.8,481.5 502.8,483.3 501,483.3 501,483.7 502.8,483.7 
	502.8,485.5 503.2,485.5 503.2,483.7 505,483.7 "/>
<polygon class="st0" points="786,493.3 784.2,493.3 784.2,491.5 783.8,491.5 783.8,493.3 782,493.3 782,493.7 783.8,493.7 
	783.8,495.5 784.2,495.5 784.2,493.7 786,493.7 "/>
<polygon class="st0" points="447,536.3 445.2,536.3 445.2,534.5 444.8,534.5 444.8,536.3 443,536.3 443,536.7 444.8,536.7 
	444.8,538.5 445.2,538.5 445.2,536.7 447,536.7 "/>
<polygon class="st0" points="575,538.3 573.2,538.3 573.2,536.5 572.8,536.5 572.8,538.3 571,538.3 571,538.7 572.8,538.7 
	572.8,540.5 573.2,540.5 573.2,538.7 575,538.7 "/>
<polygon class="st0" points="96,368.3 94.2,368.3 94.2,366.5 93.8,366.5 93.8,368.3 92,368.3 92,368.7 93.8,368.7 93.8,370.5 
	94.2,370.5 94.2,368.7 96,368.7 "/>
<rect x="677" y="230.7" class="st3" width="2.9" height="58.1"/>
<polygon class="st3" points="611.7,385 585.3,446 590.5,454.6 588.8,457.5 600.8,463.8 600.8,460.4 605.4,459.2 625,423.6 "/>
<path class="st3" d="M591.1,456.9c0,0-19.5,30.5,2.3,35.1s4-32.2,4-32.2L591.1,456.9z"/>
<path class="st4" d="M619.2,443.1l-6.9,22.4l-2.9,28.7l-5.2,10.3l5.7,46.6l9.2,9.2l4,46v20.7l10.9,19l-14.1,20
	c-2,2.9-1.3,6.8,1.5,8.9c1,0.7,2.2,1.1,3.5,1.2c3.1,0.1,7.2-0.8,12.5-3.6c16.7-8.6,16.1-16.7,16.1-16.7s10.3,0,10.9-8
	s-6.3-65.5-6.3-65.5l-6.3-24.7v-67.3h2.3l1.1,57.5l5.2,21.3l0.6,9.2l7.5,92c0,0,33.3,9.2,35.1,1.7s-12.6-12.1-12.6-12.1l8.6-16.7
	V611l-2.9-6.9l-5.2-46.6l8.6-9.2l4.6-5.7v-46l-5.7-17.8l-1.7-14.9l-9.2-23C688.2,440.8,646.2,427,619.2,443.1z"/>
<path class="st5" d="M694,313.2c0,24.1-19.6,43.7-43.7,43.7c-24.1,0-43.7-19.6-43.7-43.7c0-9.4,3-18.5,8.6-26.1l0,0
	c14.4-19.4,41.8-23.4,61.1-9C687.4,286.4,694,299.4,694,313.2z"/>
<g class="st1">
	<path d="M687.7,295.1l-3.6,20.4c-26.8-69.5-69.4-26.8-70.1-26.1c14.4-19.4,41.8-23.4,61.1-9C680.4,284.3,684.7,289.3,687.7,295.1z"
		/>
</g>
<path class="st4" d="M688.9,292.8l-3.6,20.4c-26.8-69.5-69.4-26.8-70.1-26.1c14.4-19.4,41.8-23.4,61.1-9
	C681.6,282,685.9,287,688.9,292.8L688.9,292.8z"/>
<path class="st4" d="M682.9,284.2l6,20.8c0,0-12.4,37.3-70.1,38.6l-1.9,5.3l-6.3,1.7l-2.9,12.1l8,76.5c0,0-3.4,7.5,2.3,6.9
	c0,0,37.9-12.6,70.7-1.1c0,0,6.9,2.9,5.2-3.4c0,0,23-14.4,21.3-29.3s1.7-84.5,1.7-84.5s3.4-20.1-6.9-24.7
	C710.1,302.8,694.9,281.6,682.9,284.2z"/>
<path class="st3" d="M670.3,429.4c0,0-36,3.6-26,23.6c10,20,27.7-16.9,27.7-16.9L670.3,429.4z"/>
<path class="st3" d="M688.8,340.2c0,0-6.3,7.5-4,19.5s10.9,39.1,10.9,39.1L665.2,427l9.2,12.6l41.4-21.3l9.2-5.7l0,0
	c-2.3-23.3-8-46-16.9-67.6l-1.5-3.6C706.6,341.4,695.7,336.8,688.8,340.2z"/>
<circle class="st3" cx="685.9" cy="309.2" r="10.6"/>
<circle class="st3" cx="678.4" cy="230.4" r="7.8"/>
<polygon class="st0" points="481,352.3 479.2,352.3 479.2,350.5 478.8,350.5 478.8,352.3 477,352.3 477,352.7 478.8,352.7 
	478.8,354.5 479.2,354.5 479.2,352.7 481,352.7 "/>
<polygon class="st0" points="645,296.3 643.2,296.3 643.2,294.5 642.8,294.5 642.8,296.3 641,296.3 641,296.7 642.8,296.7 
	642.8,298.5 643.2,298.5 643.2,296.7 645,296.7 "/>
<polygon class="st0" points="627,313.3 625.2,313.3 625.2,311.5 624.8,311.5 624.8,313.3 623,313.3 623,313.7 624.8,313.7 
	624.8,315.5 625.2,315.5 625.2,313.7 627,313.7 "/>
<circle class="st0" cx="556" cy="267" r="4"/>
<g id="rocket">
	<path class="st0" d="M359,295.2c0,279-35.1,279-78.4,279c-22.4,0-42.6,0-56.8-38.5c-4.1-11.1-7.7-25.4-10.8-43.7
		c-6.8-41.3-10.8-103.4-10.8-196.7c0-35.9,4.2-71.1,10.8-103.9c3.1-15.8,6.8-31.1,10.8-45.6c4.9-17.8,10.2-34.6,15.6-49.9
		c3.6-10.3,7.2-20,10.8-28.9C266.4,25.6,280.6,0,280.6,0S359,141.1,359,295.2z"/>
	<g class="st1">
		<path d="M250.1,66.8v486.5h-10.8V95.7C242.9,85.4,246.6,75.7,250.1,66.8z"/>
	</g>
	
		<ellipse transform="matrix(0.1602 -0.9871 0.9871 0.1602 43.5198 436.3698)" class="st6" cx="278.2" cy="192.6" rx="43.1" ry="43.1"/>
	<path class="st5" d="M372.7,547.9c-9.6-23.6-21.9-27.6-29.9-27.3v-3.8H217.2v3.8c-8-0.4-20.3,3.7-29.9,27.3
		c-15.6,38.3,9.6,104.1,9.6,104.1s-13.4-91.8,31.2-92.4c3.9,5,8.6,9.3,14,12.7V597h72v-22.4c7-3.6,13.2-8.7,18-14.9
		c44.6,0.6,31.2,92.4,31.2,92.4S388.3,586.2,372.7,547.9z"/>
	<circle class="st5" cx="278.2" cy="192.6" r="33.5"/>
</g>
<path class="st5" d="M846,201h-2c0.3,45.1,36.9,81.5,82,81.5v-2C882,280.5,846.3,244.9,846,201z"/>
<path class="st5" d="M809,201h-2c0.3,65.5,53.5,118.5,119,118.5v-2C861.6,317.4,809.3,265.4,809,201z"/>
<path class="st5" d="M771,201h-2c0.2,86.4,70.6,156.5,157,156.5v-2C840.7,355.5,771.2,286.2,771,201z"/>
</svg>
