<?xml version="1.0" encoding="utf-8"?>
<!-- Generator: Adobe Illustrator 25.2.0, SVG Export Plug-In . SVG Version: 6.00 Build 0)  -->
<svg version="1.1" id="e4da07c6-3f45-486e-a553-879e7f222c67"
	 xmlns="http://www.w3.org/2000/svg" xmlns:xlink="http://www.w3.org/1999/xlink" x="0px" y="0px" viewBox="0 0 926 749"
	 style="enable-background:new 0 0 926 749;" xml:space="preserve">
<style type="text/css">
	.st0{fill:#F2F2F2;}
	.st1{opacity:0.1;}
	.st2{fill:#FF6584;}
	.st3{display:none;opacity:0.1;}
	.st4{display:inline;}
	.st5{fill:#E6E6E6;}
	.st6{fill:#FFFFFF;}
	.st7{fill:#6C63FF;}
	.st8{fill:#3F3D56;}
</style>
<path class="st0" d="M470,610.7c-277.2,0-502.1,61.9-503,138.3H973C972.1,672.6,747.2,610.7,470,610.7z"/>
<g class="st1">
	<ellipse cx="352" cy="692" rx="80" ry="22.2"/>
</g>
<g class="st1">
	<ellipse cx="525" cy="655.5" rx="80" ry="21.4"/>
</g>
<g class="st1">
	<ellipse cx="352" cy="692" rx="72" ry="20"/>
</g>
<g class="st1">
	<ellipse cx="525" cy="655.5" rx="72" ry="19.3"/>
</g>
<circle class="st0" cx="138" cy="290" r="7"/>
<circle class="st0" cx="740" cy="564" r="7"/>
<circle class="st0" cx="410" cy="339" r="7"/>
<circle class="st2" cx="757" cy="297" r="4"/>
<circle class="st2" cx="154" cy="497" r="4"/>
<polygon class="st0" points="94,581.3 92.2,581.3 92.2,579.5 91.8,579.5 91.8,581.3 90,581.3 90,581.7 91.8,581.7 91.8,583.5 
	92.2,583.5 92.2,581.7 94,581.7 "/>
<polygon class="st0" points="679,444.8 677.2,444.8 677.2,443 676.8,443 676.8,444.8 675,444.8 675,445.1 676.8,445.1 676.8,446.9 
	677.2,446.9 677.2,445.1 679,445.1 "/>
<polygon class="st0" points="830,403.3 828.2,403.3 828.2,401.5 827.8,401.5 827.8,403.3 826,403.3 826,403.7 827.8,403.7 
	827.8,405.5 828.2,405.5 828.2,403.7 830,403.7 "/>
<polygon class="st0" points="505,483.3 503.2,483.3 503.2,481.5 502.8,481.5 502.8,483.3 501,483.3 501,483.7 502.8,483.7 
	502.8,485.5 503.2,485.5 503.2,483.7 505,483.7 "/>
<polygon class="st0" points="786,493.3 784.2,493.3 784.2,491.5 783.8,491.5 783.8,493.3 782,493.3 782,493.7 783.8,493.7 
	783.8,495.5 784.2,495.5 784.2,493.7 786,493.7 "/>
<polygon class="st0" points="447,536.3 445.2,536.3 445.2,534.5 444.8,534.5 444.8,536.3 443,536.3 443,536.7 444.8,536.7 
	444.8,538.5 445.2,538.5 445.2,536.7 447,536.7 "/>
<polygon class="st0" points="575,538.3 573.2,538.3 573.2,536.5 572.8,536.5 572.8,538.3 571,538.3 571,538.7 572.8,538.7 
	572.8,540.5 573.2,540.5 573.2,538.7 575,538.7 "/>
<polygon class="st0" points="96,368.3 94.2,368.3 94.2,366.5 93.8,366.5 93.8,368.3 92,368.3 92,368.7 93.8,368.7 93.8,370.5 
	94.2,370.5 94.2,368.7 96,368.7 "/>
<g class="st3">
	<path class="st4" d="M687.7,311.5l-3.6,19.7c-26.8-67-69.4-25.8-70.1-25.1c14.4-18.7,41.8-22.5,61.1-8.7
		C680.4,301.2,684.7,306,687.7,311.5z"/>
</g>
<g>
	
		<rect x="673.8" y="540.4" transform="matrix(0.9977 -6.821582e-02 6.821582e-02 0.9977 -35.8622 47.2811)" class="st5" width="1.1" height="16.7"/>
	<polygon class="st5" points="652,586.5 643.3,604.7 645.4,607 644.9,607.9 649.5,609.4 649.4,608.4 651.1,608 657.7,597.2 	"/>
	<path class="st5" d="M645.7,607.7c0,0-6.7,9.3,1.5,10s0.9-9.4,0.9-9.4L645.7,607.7z"/>
	<path class="st6" d="M655.9,603l-2.1,6.6l-0.5,8.3l-1.7,3.1l3.1,13.2l3.6,2.4l2.4,13.1l0.4,6l4.4,5.2l-4.8,6.1
		c-0.7,0.9-0.4,2,0.7,2.5c0.4,0.2,0.9,0.3,1.3,0.2c1.2-0.1,2.7-0.4,4.6-1.3c6-2.9,5.7-5.2,5.7-5.2s3.9-0.3,3.9-2.6
		c0.1-2.3-3.6-18.7-3.6-18.7l-2.8-6.9l-1.3-19.3l0.9-0.1l1.6,16.5l2.3,6l0.4,2.6l4.6,26.3c0,0,12.6,1.8,13.1-0.4
		c0.5-2.2-4.9-3.1-4.9-3.1l2.9-5l-0.6-9.3l-1.2-1.9l-2.8-13.3l3-2.9l1.6-1.8l-0.9-13.2l-2.5-5l-0.9-4.3l-3.9-6.4
		C681.6,600.6,665.7,597.7,655.9,603z"/>
	<path class="st7" d="M681.2,563.7c0.5,6.9-6.4,13.1-15.4,13.7c-9,0.6-16.7-4.5-17.1-11.5c-0.2-2.7,0.8-5.4,2.7-7.7l0,0
		c5-5.9,15.1-7.8,22.6-4.1C678.2,556.2,680.9,559.8,681.2,563.7z"/>
	<path class="st6" d="M676.5,555.7l2.6,5.8c0,0-3.9,11-25.4,12.9l-0.6,1.6l-2.3,0.7l-0.8,3.5l4.5,21.8c0,0-1.1,2.2,1,1.9
		c0,0,13.9-4.6,26.3-2.1c0,0,2.6,0.7,1.9-1.1c0,0,8.3-4.7,7.3-9c-0.9-4.3-1-24.3-1-24.3s0.9-5.9-3.1-6.9
		C687,560.3,680.9,554.6,676.5,555.7z"/>
	<path class="st5" d="M674.7,597.8c0,0-13.3,2-9.2,7.4c4.1,5.5,10-5.6,10-5.6L674.7,597.8z"/>
	<path class="st5" d="M679.8,571.6c0,0-2.2,2.3-1.1,5.7c1.1,3.4,4.8,11,4.8,11l-10.8,8.9l3.7,3.4l15-7.2l3.3-1.9l0,0
		c-1.3-6.6-3.9-13-7.6-19l-0.6-1C686.5,571.5,682.3,570.5,679.8,571.6z"/>
	
		<ellipse transform="matrix(0.9977 -6.821582e-02 6.821582e-02 0.9977 -36.8103 47.57)" class="st5" cx="678.1" cy="562.8" rx="4" ry="3.1"/>
	
		<ellipse transform="matrix(0.9977 -6.821582e-02 6.821582e-02 0.9977 -35.2884 47.2222)" class="st5" cx="673.8" cy="540.3" rx="2.9" ry="2.2"/>
	<path class="st6" d="M678.9,558l-0.9,6c-11.3-19.3-26.4-5.9-26.6-5.7c5-5.9,15.1-7.8,22.6-4.1C676,555.1,677.7,556.4,678.9,558
		L678.9,558z"/>
</g>
<polygon class="st0" points="481,352.3 479.2,352.3 479.2,350.5 478.8,350.5 478.8,352.3 477,352.3 477,352.7 478.8,352.7 
	478.8,354.5 479.2,354.5 479.2,352.7 481,352.7 "/>
<polygon class="st0" points="645,312.7 643.2,312.7 643.2,311 642.8,311 642.8,312.7 641,312.7 641,313.1 642.8,313.1 642.8,314.8 
	643.2,314.8 643.2,313.1 645,313.1 "/>
<polygon class="st0" points="627,329.1 625.2,329.1 625.2,327.4 624.8,327.4 624.8,329.1 623,329.1 623,329.5 624.8,329.5 
	624.8,331.2 625.2,331.2 625.2,329.5 627,329.5 "/>
<circle class="st0" cx="556" cy="267" r="4"/>
<g id="rocket">
	<path class="st0" d="M370.5,525c0,99.3-13.6,99.3-30.4,99.3c-8.7,0-16.5,0-22-13.7c-1.6-3.9-3-9-4.2-15.6
		c-2.7-14.7-4.2-36.8-4.2-70c0-12.8,1.6-25.3,4.2-37c1.2-5.6,2.6-11.1,4.2-16.2c1.9-6.3,3.9-12.3,6-17.8c1.4-3.7,2.8-7.1,4.2-10.3
		c6.3-14.7,11.8-23.8,11.8-23.8S370.5,470.2,370.5,525z"/>
	<g class="st1">
		<path d="M328.3,443.8v173.1h-4.2V454.1C325.5,450.4,326.9,447,328.3,443.8z"/>
	</g>
	<ellipse class="st8" cx="339.2" cy="488.5" rx="16.7" ry="15.3"/>
	<path class="st7" d="M375.8,615c-3.7-8.4-8.5-9.8-11.6-9.7v-1.4h-48.7v1.4c-3.1-0.1-7.9,1.3-11.6,9.7c-6,13.6,3.7,37,3.7,37
		s-5.2-32.7,12.1-32.9c1.5,1.8,3.3,3.3,5.4,4.5v8.8h27.9v-8c2.7-1.3,5.1-3.1,7-5.3c17.3,0.2,12.1,32.9,12.1,32.9
		S381.9,628.6,375.8,615z"/>
	<ellipse class="st7" cx="339.2" cy="488.5" rx="13" ry="11.9"/>
</g>
<path class="st7" d="M846,201h-2c0.3,45.1,36.9,81.5,82,81.5v-2C882,280.5,846.3,244.9,846,201z"/>
<path class="st7" d="M809,201h-2c0.3,65.5,53.5,118.5,119,118.5v-2C861.6,317.4,809.3,265.4,809,201z"/>
<path class="st7" d="M771,201h-2c0.2,86.4,70.6,156.5,157,156.5v-2C840.7,355.5,771.2,286.2,771,201z"/>
</svg>
